<?xml version="1.0" encoding="utf-8"?>
<svg version="2.0" xmlns="http://www.w3.org/2000/svg" xmlns:xlink="http://www.w3.org/1999/xlink" x="0px" y="0px"
	 viewBox="0 0 360 360" style="enable-background:new 0 0 360 360;" xml:space="preserve">
<style type="text/css">
	.st0{fill:#004F9F;}
</style>
<path class="st0" d="M184,42.3V360h13.5V65.1c32.6,13.5,55.5,45.4,55.5,82.6c0,32.7-16.4,59.8-42.8,75.4v19.9
	c35.2-17.8,60.8-53.5,60.8-95.3C271,95.6,233.6,52.2,184,42.3z M122.7,128.8l-4.4-5.6c-19.9,16.1-34.6,38.6-41,65.8
	C64.8,243.2,90.1,302.9,148.1,328l1.8-8.5c-50.9-18.9-77.7-77.8-65.8-129C90.1,164.8,103.8,144,122.7,128.8z M63.7,186.1
	c9.5-40.5,36-72.5,69.7-89.7l-8.9-12.2c-36.9,19.2-65.7,54.2-76,98.4c-18.4,79,29.2,157.3,106.3,174.9c7.3,1.7,11.6,1.9,18.9,2.4
	v-14.3c-6.8-0.4-8.7-0.6-15.6-2.2C89.4,327.7,47.1,257.3,63.7,186.1z M278.1,145.6c0,26.4-9,50.5-23.9,69.5l5.7,4
	c15.7-20.1,25.1-45.7,25.1-73.6c0-55.5-37.4-102-87.7-114.4l0,7.3C243.8,50.7,278.1,94,278.1,145.6z M172.4,0
	c-7.4,0-14.8,0.6-21.9,1.7l1.3,14.5c6.7-1.1,13.6-1.7,20.6-1.7c70.5,0,127.6,59.2,127.6,132.2c0,42.7-19.5,80.6-49.8,104.8l11.5,9.8
	c32.8-26.9,53.8-68.3,53.8-114.7C315.4,65.7,251.3,0,172.4,0z M161.8,134.2L151,119.4c-28.6,13.7-50.9,39.6-58.6,72.7
	c-11.6,50,14,100,58.9,121.2l3.9-18.1c-35-18.7-54.6-58.8-45.2-99C116.7,167.5,136.6,145.2,161.8,134.2z"/>
</svg>
